<svg class="icon" style="width: 1em;height: 1em;vertical-align: middle;fill: currentColor;overflow: hidden;" viewBox="0 0 1024 1024" version="1.1" xmlns="http://www.w3.org/2000/svg"><path d="M637.913641 1024a56.469915 56.469915 0 0 1-50.540862-31.717557c-17.614469-36.495338-40.294537-51.807262-75.29322-52.09508s-57.563624 15.599742-75.408347 52.152644a56.412352 56.412352 0 0 1-50.425735 31.544866 58.13926 58.13926 0 0 1-14.44847-1.842036 512.834327 512.834327 0 0 1-120.88361-49.792535 56.182097 56.182097 0 0 1-25.443122-67.061622c13.700143-39.834028 8.116471-67.522131-18.593051-92.504744a70.803258 70.803258 0 0 0-50.598425-21.356105 112.018813 112.018813 0 0 0-37.070974 7.195453 56.815297 56.815297 0 0 1-18.593051 3.166A56.182097 56.182097 0 0 1 51.973512 773.425544a517.612108 517.612108 0 0 1-49.792535-120.423101A56.124534 56.124534 0 0 1 31.826243 587.437475c36.783156-17.729596 52.382898-40.294537 52.152644-75.868857s-15.772433-57.103115-51.807262-74.832711A56.182097 56.182097 0 0 1 2.123413 371.861702 519.626835 519.626835 0 0 1 51.973512 251.553728a56.06697 56.06697 0 0 1 67.579694-25.327994 111.155358 111.155358 0 0 0 36.955847 7.195453 71.781839 71.781839 0 0 0 52.900971-23.601086c24.867486-24.752358 29.760394-51.807262 16.405632-90.144636a56.124534 56.124534 0 0 1 25.097741-67.119185A521.008362 521.008362 0 0 1 371.336498 2.648617a55.836715 55.836715 0 0 1 14.793852-1.957163 56.469915 56.469915 0 0 1 50.598425 31.775121c17.269087 36.437774 40.294537 51.807262 75.235657 51.807261s57.563624-15.772433 75.523475-52.613152a56.182097 56.182097 0 0 1 68.270458-28.781812l10.303889 3.281127 8.461852 2.647926c11.109779 3.568945 18.708178 6.331999 26.249013 9.497998 11.800543 4.950472 21.356105 9.325307 39.661337 17.902287 11.512725 5.295853 16.117815 7.540835 22.104432 10.246325a62.283841 62.283841 0 0 1 33.732283 80.589074 78.516783 78.516783 0 0 0 56.297225 104.132596 76.55962 76.55962 0 0 0 17.269087 2.072291 82.143292 82.143292 0 0 0 27.975921-5.123163 53.821989 53.821989 0 0 1 5.756363-2.07229 59.002715 59.002715 0 0 1 17.269087-2.705491 47.144608 47.144608 0 0 1 4.892908 0 59.232969 59.232969 0 0 1 47.777808 31.372175 526.649597 526.649597 0 0 1 46.741663 113.342776l1.036145 3.511381a56.124534 56.124534 0 0 1-29.760394 65.334714c-36.20752 17.269087-51.807262 39.776464-51.807261 74.372202s15.311924 58.196824 52.210207 76.099111a56.354788 56.354788 0 0 1 29.645266 65.219586 516.403272 516.403272 0 0 1-49.907662 120.480666 56.239661 56.239661 0 0 1-48.75639 28.321303 55.43377 55.43377 0 0 1-18.362796-3.108436 114.148667 114.148667 0 0 0-37.416355-7.195453 71.378894 71.378894 0 0 0-52.843407 23.658649c-24.809922 24.867486-29.70283 51.807262-16.34807 89.74169a56.124534 56.124534 0 0 1-25.09774 67.349441 520.144907 520.144907 0 0 1-120.307974 49.907662 57.103115 57.103115 0 0 1-14.621161 2.244981z m-125.834082-148.111205c57.966569 0 101.714924 27.745667 130.093791 82.315983a454.75263 454.75263 0 0 0 93.195507-38.682756c-18.535487-58.484642-7.253017-108.910377 33.617157-149.953241a135.274517 135.274517 0 0 1 98.261106-42.481954 174.475345 174.475345 0 0 1 52.152643 8.57698 451.010995 451.010995 0 0 0 38.567628-93.310635c-55.088388-28.781812-82.776491-72.990675-82.258418-131.417754 0.518073-57.160679 28.148612-100.39096 82.315982-128.597136a467.013682 467.013682 0 0 0-38.625192-93.483325 148.859532 148.859532 0 0 1-49.274462 8.74967 141.261134 141.261134 0 0 1-32.40832-3.741635 142.815351 142.815351 0 0 1-107.068341-171.079091 129.2879 129.2879 0 0 1 5.180726-17.269087c-7.483271-3.33869-14.851415-6.792508-22.219559-10.246325-12.318616-5.756362-25.040176-11.512725-37.704174-17.269088-8.922362-3.741636-18.535487-6.734944-27.80323-9.670688l-5.756363-1.842036c-28.781812 54.685443-72.472603 82.43111-130.09379 82.431109S410.249508 121.17212 381.870641 66.486677a458.436702 458.436702 0 0 0-93.253071 38.625191c18.477923 58.945151 7.080326 109.370886-33.962538 150.298623a135.447208 135.447208 0 0 1-97.858161 42.309264 172.690872 172.690872 0 0 1-51.807262-8.634544 456.076594 456.076594 0 0 0-38.625191 93.195507c54.224934 28.263739 81.913037 71.666712 82.258419 129.057646 0.345382 58.311951-27.342721 102.405687-82.258419 131.072372a452.219831 452.219831 0 0 0 38.682755 93.253071 173.151381 173.151381 0 0 1 51.807262-8.57698A134.871571 134.871571 0 0 1 251.028524 765.88471c43.921045 41.157991 56.527479 92.907689 37.589046 153.867567a450.262668 450.262668 0 0 0 93.310635 38.510064c28.781812-54.512752 72.357476-82.200855 130.093791-82.200855z" fill="#040000" /><path d="M512.482504 279.011577a227.894388 227.894388 0 1 0 187.081779 97.858161 24.004031 24.004031 0 0 0-39.373519 27.457848 179.771198 179.771198 0 1 1-77.768456-63.319986 23.946468 23.946468 0 1 0 18.650614-44.1513A226.225043 226.225043 0 0 0 512.482504 279.011577z" fill="#248CCD" /></svg>